<svg version="1.1" xmlns="http://www.w3.org/2000/svg" viewBox="0 0 724 641" width="724" height="641">
  <!-- svg-source:excalidraw -->
  
  <defs>
    <style class="style-fonts">
      @font-face {
        font-family: "Virgil";
        src: url("https://excalidraw.com/Virgil.woff2");
      }
      @font-face {
        font-family: "Cascadia";
        src: url("https://excalidraw.com/Cascadia.woff2");
      }
    </style>
  </defs>
  <rect x="0" y="0" width="724" height="641" fill="#ffffff"></rect><g transform="translate(674 595) rotate(0 0.00004999999998744897 0.00004999999998744897)" stroke="none"><path fill="#000000" d="M 1.57,-1.57 Q 1.57,-1.57 1.77,-1.27 1.98,-0.98 2.09,-0.64 2.20,-0.29 2.19,0.05 2.18,0.41 2.05,0.75 1.93,1.09 1.70,1.37 1.48,1.65 1.18,1.84 0.87,2.04 0.52,2.12 0.18,2.21 -0.17,2.18 -0.53,2.15 -0.86,2.01 -1.19,1.87 -1.46,1.63 -1.73,1.39 -1.90,1.07 -2.08,0.76 -2.15,0.41 -2.21,0.05 -2.17,-0.29 -2.12,-0.65 -1.96,-0.97 -1.80,-1.29 -1.54,-1.54 -1.29,-1.80 -0.97,-1.96 -0.65,-2.12 -0.29,-2.17 0.06,-2.21 0.41,-2.15 0.76,-2.08 1.07,-1.90 1.39,-1.73 1.63,-1.46 1.87,-1.19 2.01,-0.86 2.15,-0.53 2.18,-0.17 2.21,0.18 2.12,0.52 2.03,0.87 1.84,1.18 1.65,1.48 1.37,1.70 1.09,1.93 0.75,2.05 0.41,2.18 0.05,2.19 -0.30,2.20 -0.64,2.09 -0.98,1.98 -1.27,1.77 -1.57,1.56 -1.57,1.57 -1.57,1.57 -1.73,1.35 -1.90,1.14 -2.01,0.90 -2.12,0.66 -2.16,0.39 -2.21,0.13 -2.20,-0.13 -2.18,-0.40 -2.10,-0.65 -2.02,-0.91 -1.88,-1.14 -1.74,-1.36 -1.55,-1.55 -1.36,-1.74 -1.14,-1.88 -0.91,-2.02 -0.65,-2.10 -0.40,-2.18 -0.13,-2.20 0.13,-2.21 0.39,-2.16 0.66,-2.12 0.90,-2.01 1.14,-1.90 1.35,-1.73 1.57,-1.57 1.57,-1.57 L 1.57,-1.57 Z"></path></g><g transform="translate(10 10) rotate(0 315.5 56.5)"><text x="0" y="79" font-family="Virgil, Segoe UI Emoji" font-size="89.59999999999994px" fill="#000000" text-anchor="start" style="white-space: pre;" direction="ltr">Neeraj Lamsal</text></g><g transform="translate(460 127) rotate(0 127 15)"><text x="0" y="21" font-family="Virgil, Segoe UI Emoji" font-size="23.999999999999996px" fill="#000000" text-anchor="start" style="white-space: pre;" direction="ltr">- Backend Developer </text></g><g transform="translate(26 214) rotate(0 280.5 56)"><text x="0" y="39" font-family="Virgil, Segoe UI Emoji" font-size="44.226771653543324px" fill="#000000" text-anchor="start" style="white-space: pre;" direction="ltr">Language and Frameworks</text><text x="0" y="95" font-family="Virgil, Segoe UI Emoji" font-size="44.226771653543324px" fill="#000000" text-anchor="start" style="white-space: pre;" direction="ltr"></text></g><g transform="translate(31 289) rotate(0 80.5 87)"><text x="0" y="20" font-family="Virgil, Segoe UI Emoji" font-size="22.836879432624126px" fill="#000000" text-anchor="start" style="white-space: pre;" direction="ltr"></text><text x="0" y="49" font-family="Virgil, Segoe UI Emoji" font-size="22.836879432624126px" fill="#000000" text-anchor="start" style="white-space: pre;" direction="ltr"></text><text x="0" y="78" font-family="Virgil, Segoe UI Emoji" font-size="22.836879432624126px" fill="#000000" text-anchor="start" style="white-space: pre;" direction="ltr">- Python</text><text x="0" y="107" font-family="Virgil, Segoe UI Emoji" font-size="22.836879432624126px" fill="#000000" text-anchor="start" style="white-space: pre;" direction="ltr">- Type Script </text><text x="0" y="136" font-family="Virgil, Segoe UI Emoji" font-size="22.836879432624126px" fill="#000000" text-anchor="start" style="white-space: pre;" direction="ltr">- Django </text><text x="0" y="165" font-family="Virgil, Segoe UI Emoji" font-size="22.836879432624126px" fill="#000000" text-anchor="start" style="white-space: pre;" direction="ltr">- Flask </text></g><g transform="translate(211.22424242424245 342) rotate(0 71 75)"><text x="0" y="21" font-family="Virgil, Segoe UI Emoji" font-size="23.839999999999996px" fill="#000000" text-anchor="start" style="white-space: pre;" direction="ltr">- FastAPI</text><text x="0" y="51" font-family="Virgil, Segoe UI Emoji" font-size="23.839999999999996px" fill="#000000" text-anchor="start" style="white-space: pre;" direction="ltr">- NestJS</text><text x="0" y="81" font-family="Virgil, Segoe UI Emoji" font-size="23.839999999999996px" fill="#000000" text-anchor="start" style="white-space: pre;" direction="ltr">- ExpressJS</text><text x="0" y="111" font-family="Virgil, Segoe UI Emoji" font-size="23.839999999999996px" fill="#000000" text-anchor="start" style="white-space: pre;" direction="ltr">- React </text><text x="0" y="141" font-family="Virgil, Segoe UI Emoji" font-size="23.839999999999996px" fill="#000000" text-anchor="start" style="white-space: pre;" direction="ltr"></text></g><g transform="translate(417 334) rotate(0 75.5 62)"><text x="0" y="22" font-family="Virgil, Segoe UI Emoji" font-size="24.35483870967742px" fill="#000000" text-anchor="start" style="white-space: pre;" direction="ltr">- JavaScript</text><text x="0" y="53" font-family="Virgil, Segoe UI Emoji" font-size="24.35483870967742px" fill="#000000" text-anchor="start" style="white-space: pre;" direction="ltr">- NodeJS</text><text x="0" y="84" font-family="Virgil, Segoe UI Emoji" font-size="24.35483870967742px" fill="#000000" text-anchor="start" style="white-space: pre;" direction="ltr">- Git</text><text x="0" y="115" font-family="Virgil, Segoe UI Emoji" font-size="24.35483870967742px" fill="#000000" text-anchor="start" style="white-space: pre;" direction="ltr">- Rust</text></g><g transform="translate(206 606) rotate(0 51.5 12.5)"><text x="0" y="18" font-family="Virgil, Segoe UI Emoji" font-size="20px" fill="#000000" text-anchor="start" style="white-space: pre;" direction="ltr">No stats </text></g><g transform="translate(309 605) rotate(0 43.5 12.5)"><text x="0" y="18" font-family="Virgil, Segoe UI Emoji" font-size="20px" fill="#000000" text-anchor="start" style="white-space: pre;" direction="ltr">available</text></g></svg>